<mxfile host="app.diagrams.net" modified="2020-12-28T01:59:56.811Z" agent="5.0 (Windows NT 6.3; Win64; x64) AppleWebKit/537.36 (KHTML, like Gecko) Chrome/86.0.4240.193 Safari/537.36" etag="tmUkZL6Ta8YX_C2jBxq7" version="14.0.1" type="github">
  <diagram id="HiBDdGsCSCRJGu46grBK" name="Page-1">
    <mxGraphModel dx="905" dy="684" grid="1" gridSize="10" guides="1" tooltips="1" connect="1" arrows="1" fold="1" page="1" pageScale="1" pageWidth="2339" pageHeight="3300" math="0" shadow="0">
      <root>
        <mxCell id="0" />
        <mxCell id="1" parent="0" />
        <mxCell id="AeAEH1RDBEVZbLD5PtsE-5" value="长江大数据云平台评价体系" style="rounded=0;whiteSpace=wrap;html=1;fontSize=16;fontFamily=宋体;" vertex="1" parent="1">
          <mxGeometry x="370" y="60" width="150" height="40" as="geometry" />
        </mxCell>
      </root>
    </mxGraphModel>
  </diagram>
</mxfile>
